<?xml version="1.0" standalone="no"?>
<!DOCTYPE svg PUBLIC "-//W3C//DTD SVG 20010904//EN"
 "http://www.w3.org/TR/2001/REC-SVG-20010904/DTD/svg10.dtd">
<svg version="1.0" xmlns="http://www.w3.org/2000/svg"
 width="512.000000pt" height="512.000000pt" viewBox="0 0 512.000000 512.000000"
 preserveAspectRatio="xMidYMid meet">
<metadata>
Created by potrace 1.11, written by Peter Selinger 2001-2013
</metadata>
<g transform="translate(0.000000,512.000000) scale(0.100000,-0.100000)"
fill="#000000" stroke="none">
<path d="M2193 5100 c-573 -87 -1067 -340 -1468 -751 -395 -405 -632 -892
-709 -1457 -21 -152 -21 -512 0 -664 77 -565 314 -1052 709 -1457 409 -419
917 -675 1503 -755 152 -21 512 -21 664 0 586 80 1094 336 1503 755 395 405
632 892 709 1457 21 152 21 512 0 664 -77 565 -314 1052 -709 1457 -409 419
-917 675 -1503 755 -162 23 -537 20 -699 -4z m657 -557 c501 -71 965 -341
1289 -749 l41 -51 -127 -108 c-69 -59 -132 -108 -139 -109 -7 0 -48 42 -92 95
-235 283 -565 479 -945 561 -87 19 -133 22 -317 22 -184 0 -230 -3 -317 -22
-531 -115 -955 -449 -1180 -930 -24 -51 -46 -107 -50 -124 -6 -29 32 -68 1038
-1075 1017 -1017 1045 -1044 1077 -1039 48 7 245 106 344 173 253 170 456 405
584 678 37 81 93 236 110 308 l6 27 -436 0 -436 0 0 175 0 175 634 0 634 0 -5
-82 c-42 -749 -469 -1393 -1138 -1714 -107 -52 -315 -127 -385 -139 l-35 -6
-1199 1200 -1200 1200 22 80 c126 473 434 890 860 1166 105 67 320 169 446
210 293 96 606 122 916 78z m-367 -3981 c-15 -2 -72 1 -127 8 -540 60 -1009
310 -1348 720 -182 219 -337 540 -399 823 -22 101 -49 298 -49 362 l0 40 975
-975 c877 -877 973 -975 948 -978z"/>
</g>
</svg>
